# Made in Blockbench 5.1.6
mtllib beam.mtl

o mesh
v -2.7755575615628914e-17 0.17677669529663703 0.34374999999999994
v 0.17677669529663684 1.5265566588595902e-16 0.34375
v -2.7755575615628914e-17 0.1767766952966368 -0.34375000000000006
v 0.17677669529663684 -6.938893903907228e-17 -0.34375
v -0.17677669529663692 1.5265566588595902e-16 0.34374999999999994
v -5.551115123125783e-17 -0.1767766952966367 0.34375
v -0.17677669529663692 -6.938893903907228e-17 -0.34375000000000006
v -5.551115123125783e-17 -0.17677669529663692 -0.34375
vt 1 1
vt 0 1
vt 0 0.5
vt 1 0.5
vt 1 0.5
vt 1 1
vt 0 1
vt 0 0.5
vt 0 0
vt 1 0
vt 1 1
vt 0 1
vt 1 0
vt 1 1
vt 0 1
vt 0 0
vt 1 0.5
vt 1 1
vt 0 1
vt 0 0.5
vt 1 1
vt 0 1
vt 0 0.5
vt 1 0.5
vn -0.7071067811865476 -0.7071067811865476 2.355138688025663e-16
vn 0.7071067811865476 0.7071067811865476 -2.355138688025663e-16
vn 7.850462293418876e-17 -2.3551386880256634e-16 -1
vn -7.850462293418876e-17 2.3551386880256634e-16 1
vn 0.7071067811865475 -0.7071067811865476 2.355138688025663e-16
vn -0.7071067811865475 0.7071067811865476 -2.355138688025663e-16
usemtl none
f 2/1/1 1/2/1 3/3/1 4/4/1
f 7/5/2 5/6/2 6/7/2 8/8/2
f 5/9/3 1/10/3 2/11/3 6/12/3
f 4/13/4 3/14/4 7/15/4 8/16/4
f 3/17/5 1/18/5 5/19/5 7/20/5
f 6/21/6 2/22/6 4/23/6 8/24/6