# Made in Blockbench 5.1.6
mtllib cuboid.mtl

o beveled_cuboid
v 0.1875 0.09375 -0.140625
v 0.1875 0.09375 0.140625
v 0.1875 -0.09375 0.140625
v 0.1875 -0.09375 -0.140625
v -0.1875 -0.09375 0.140625
v -0.1875 0.09375 0.140625
v -0.1875 0.09375 -0.140625
v -0.1875 -0.09375 -0.140625
v 0.140625 0.1875 0.140625
v 0.140625 0.1875 -0.140625
v -0.140625 0.1875 -0.140625
v -0.140625 0.1875 0.140625
v -0.140625 -0.1875 -0.140625
v 0.140625 -0.1875 -0.140625
v 0.140625 -0.1875 0.140625
v -0.140625 -0.1875 0.140625
v 0.140625 -0.09375 0.1875
v 0.140625 0.09375 0.1875
v -0.140625 0.09375 0.1875
v -0.140625 -0.09375 0.1875
v -0.140625 0.09375 -0.1875
v 0.140625 0.09375 -0.1875
v 0.140625 -0.09375 -0.1875
v -0.140625 -0.09375 -0.1875
vt 0.75 1
vt 0 1
vt 0 0.75
vt 0.75 0.75
vt 0.75 0.75
vt 0.75 1
vt 0 1
vt 0 0.75
vt 0.75 0.25
vt 0.75 1
vt 0 1
vt 0 0.25
vt 0 0.25
vt 0.75 0.25
vt 0.75 1
vt 0 1
vt 0.75 0.75
vt 0.75 1
vt 0 1
vt 0 0.75
vt 0.75 1
vt 0 1
vt 0 0.75
vt 0.75 0.75
vt 0.75 1
vt 0 1
vt 0 0.823225
vt 0.75 0.823225
vt 0.75 0.823225
vt 0.75 1
vt 0 1
vt 0 0.823225
vt 0.75 0.823225
vt 0.75 1
vt 0 1
vt 0 0.823225
vt 0.75 1
vt 0 1
vt 0 0.823225
vt 0.75 0.823225
vt 0 1
vt 0 0.82321875
vt 0.75 0.82321875
vt 0.75 1
vt 0 0.82321875
vt 0.75 0.82321875
vt 0.75 1
vt 0 1
vt 0 0.82321875
vt 0.75 0.82321875
vt 0.75 1
vt 0 1
vt 0 1
vt 0 0.82321875
vt 0.75 0.82321875
vt 0.75 1
vt 0 0.75
vt 0.176775 0.75
vt 0.176775 1
vt 0 1
vt 0 1
vt 0 0.75
vt 0.176775 0.75
vt 0.176775 1
vt 0 1
vt 0 0.75
vt 0.176775 0.75
vt 0.176775 1
vt 0 0.75
vt 0.176775 0.75
vt 0.176775 1
vt 0 1
vt 0.0883875 0.84690625
vt 0.176775 1
vt 0 1
vt 0.0883875 0.84690625
vt 0.176775 1
vt 0 1
vt 0.0883875 0.84690625
vt 0.176775 1
vt 0 1
vt 0.0883875 0.84690625
vt 0.176775 1
vt 0 1
vt 0.0883875 1
vt 0 0.84690625
vt 0.176775 0.84690625
vt 0.0883875 1
vt 0 0.84690625
vt 0.176775 0.84690625
vt 0.0883875 1
vt 0 0.84690625
vt 0.176775 0.84690625
vt 0.0883875 1
vt 0 0.84690625
vt 0.176775 0.84690625
vn 1 0 0
vn -1 0 0
vn 0 1 0
vn 0 -1 0
vn 0 0 1
vn 0 0 -1
vn 0.8944271909999161 0.44721359549995804 0
vn -0.8944271909999161 0.44721359549995804 0
vn 0 0.44721359549995804 0.8944271909999161
vn 0 0.44721359549995804 -0.8944271909999161
vn 0.8944271909999161 -0.44721359549995804 0
vn -0.8944271909999161 -0.44721359549995804 0
vn 0 -0.44721359549995804 0.8944271909999161
vn 0 -0.44721359549995804 -0.8944271909999161
vn 0.7071067811865476 0 -0.7071067811865476
vn 0.7071067811865476 0 0.7071067811865476
vn -0.7071067811865476 0 -0.7071067811865476
vn -0.7071067811865476 0 0.7071067811865476
vn 0.6666666666666666 -0.3333333333333333 0.6666666666666666
vn -0.6666666666666666 -0.3333333333333333 0.6666666666666666
vn 0.6666666666666666 -0.3333333333333333 -0.6666666666666666
vn -0.6666666666666666 -0.3333333333333333 -0.6666666666666666
vn 0.6666666666666666 0.3333333333333333 0.6666666666666666
vn -0.6666666666666666 0.3333333333333333 0.6666666666666666
vn 0.6666666666666666 0.3333333333333333 -0.6666666666666666
vn -0.6666666666666666 0.3333333333333333 -0.6666666666666666
usemtl none
f 1/1/1 2/2/1 3/3/1 4/4/1
f 5/5/2 6/6/2 7/7/2 8/8/2
f 9/9/3 10/10/3 11/11/3 12/12/3
f 13/13/4 14/14/4 15/15/4 16/16/4
f 17/17/5 18/18/5 19/19/5 20/20/5
f 21/21/6 22/22/6 23/23/6 24/24/6
f 10/25/7 9/26/7 2/27/7 1/28/7
f 6/29/8 12/30/8 11/31/8 7/32/8
f 18/33/9 9/34/9 12/35/9 19/36/9
f 11/37/10 10/38/10 22/39/10 21/40/10
f 3/41/11 15/42/11 14/43/11 4/44/11
f 13/45/12 16/46/12 5/47/12 8/48/12
f 16/49/13 15/50/13 17/51/13 20/52/13
f 23/53/14 14/54/14 13/55/14 24/56/14
f 4/57/15 23/58/15 22/59/15 1/60/15
f 18/61/16 17/62/16 3/63/16 2/64/16
f 21/65/17 24/66/17 8/67/17 7/68/17
f 5/69/18 20/70/18 19/71/18 6/72/18
f 15/73/19 3/74/19 17/75/19
f 16/76/20 20/77/20 5/78/20
f 14/79/21 23/80/21 4/81/21
f 13/82/22 8/83/22 24/84/22
f 9/85/23 18/86/23 2/87/23
f 12/88/24 6/89/24 19/90/24
f 10/91/25 1/92/25 22/93/25
f 11/94/26 21/95/26 7/96/26