# Made in Blockbench 5.1.6
mtllib enemy_basic.mtl

o pyramid
v -0.24999999999999994 0.24999999999999978 0.5312500000000006
v -0.24999999999999994 -0.2500000000000002 0.5312500000000006
v 0.25000000000000006 -0.2500000000000002 0.5312500000000006
v 0.25000000000000006 0.24999999999999978 0.5312500000000006
v -9.567553118338698e-17 5.551115123125783e-17 -0.7812500000000001
vt 1 0
vt 1 1
vt 0 1
vt 0 0
vt 0 0.29288749999999997
vt 1 0.29288749999999997
vt 0.5 1
vt 0 0.29288749999999997
vt 1 0.29288749999999997
vt 0.5 1
vt 0 0.29288749999999997
vt 1 0.29288749999999997
vt 0.5 1
vt 0 0.29288749999999997
vt 1 0.29288749999999997
vt 0.5 1
vn 1.2246467991473532e-16 0 1
vn -0.9823385664224749 0 -0.187112107889995
vn -2.29146244009197e-17 -0.9823385664224749 -0.1871121078899953
vn -2.2914624400919647e-17 0.9823385664224749 -0.1871121078899949
vn 0.9823385664224749 0 -0.18711210788999522
usemtl none
f 1/1/1 2/2/1 3/3/1 4/4/1
f 2/5/2 1/6/2 5/7/2
f 3/8/3 2/9/3 5/10/3
f 1/11/4 4/12/4 5/13/4
f 4/14/5 3/15/5 5/16/5