# Made in Blockbench 5.1.6
mtllib enemy_crystal.mtl

o pyramid
v 0 0.6875 0
v 0.25 0.1875 0.25
v 0.25 0.1875 -0.25
v -0.25 0.1875 0.25
v -0.25 0.1875 -0.25
vt 1 0
vt 1 1
vt 0 1
vt 0 0
vt 0 0.29288749999999997
vt 1 0.29288749999999997
vt 0.5 1
vt 0 0.29288749999999997
vt 1 0.29288749999999997
vt 0.5 1
vt 0 0.29288749999999997
vt 1 0.29288749999999997
vt 0.5 1
vt 0 0.29288749999999997
vt 1 0.29288749999999997
vt 0.5 1
vn 0 -1 0
vn 0.8944271909999161 0.44721359549995804 0
vn 0 0.44721359549995804 0.8944271909999161
vn 0 0.44721359549995804 -0.8944271909999161
vn -0.8944271909999161 0.44721359549995804 0
usemtl none
f 3/1/1 2/2/1 4/3/1 5/4/1
f 2/5/2 3/6/2 1/7/2
f 4/8/3 2/9/3 1/10/3
f 3/11/4 5/12/4 1/13/4
f 5/14/5 4/15/5 1/16/5
o pyramid
v 0 -0.6875 -6.123233995736766e-17
v 0.25 -0.18749999999999997 -0.25
v 0.25 -0.18750000000000003 0.25
v -0.25 -0.18749999999999997 -0.25
v -0.25 -0.18750000000000003 0.25
vt 1 0
vt 1 1
vt 0 1
vt 0 0
vt 0 0.29288749999999997
vt 1 0.29288749999999997
vt 0.5 1
vt 0 0.29288749999999997
vt 1 0.29288749999999997
vt 0.5 1
vt 0 0.29288749999999997
vt 1 0.29288749999999997
vt 0.5 1
vt 0 0.29288749999999997
vt 1 0.29288749999999997
vt 0.5 1
vn 0 1 1.2246467991473532e-16
vn 0.8944271909999161 -0.44721359549995804 -5.4767869826420275e-17
vn 0 -0.4472135954999579 -0.8944271909999161
vn 0 -0.44721359549995804 0.8944271909999159
vn -0.8944271909999161 -0.44721359549995804 -5.4767869826420275e-17
usemtl none
f 8/17/6 7/18/6 9/19/6 10/20/6
f 7/21/7 8/22/7 6/23/7
f 9/24/8 7/25/8 6/26/8
f 8/27/9 10/28/9 6/29/9
f 10/30/10 9/31/10 6/32/10
o mesh
v 0.0625 0.1875 0.0625
v 0.0625 0.1875 -0.0625
v 0.0625 -0.1875 0.0625
v 0.0625 -0.1875 -0.0625
v -0.0625 0.1875 0.0625
v -0.0625 0.1875 -0.0625
v -0.0625 -0.1875 0.0625
v -0.0625 -0.1875 -0.0625
vt 1 1
vt 0 1
vt 0 0.5
vt 1 0.5
vt 1 0.5
vt 1 1
vt 0 1
vt 0 0.5
vt 0 0
vt 1 0
vt 1 1
vt 0 1
vt 1 0
vt 1 1
vt 0 1
vt 0 0
vt 1 0.5
vt 1 1
vt 0 1
vt 0 0.5
vt 1 1
vt 0 1
vt 0 0.5
vt 1 0.5
vn 1 0 0
vn -1 0 0
vn 0 1 0
vn 0 -1 0
vn 0 0 1
vn 0 0 -1
usemtl none
f 12/33/11 11/34/11 13/35/11 14/36/11
f 17/37/12 15/38/12 16/39/12 18/40/12
f 15/41/13 11/42/13 12/43/13 16/44/13
f 14/45/14 13/46/14 17/47/14 18/48/14
f 13/49/15 11/50/15 15/51/15 17/52/15
f 16/53/16 12/54/16 14/55/16 18/56/16