# Made in Blockbench 5.1.6
mtllib laser.mtl

o unknown
v -0.18641600000000003 -0.015669404078996356 0.3413162475772432
v 0.0010840000000000097 0.10933059592100358 0.32212037232602353
v 0.0010840000000000214 -0.011087512978883558 -0.4086837524227568
v 0.18858399999999997 -0.01566940407899641 0.3413162475772432
vt 0.375 0
vt 0.75 0
vt 0.5 0.25
vt 0.5 0.5
vt 0.625 0.875
vt 0.375 0.75
vt 0.375 0.75
vt 0.625 0.875
vt 0.375 1
vt 0.125 0
vt 0.375 0
vt 0.5 0.25
vn -0.5591547195169623 0.8180326041995725 -0.13479116480086178
vn 0.5591547195169626 0.8180326041995722 -0.13479116480086173
vn 2.2469084496914397e-17 0.1517876408514898 0.9884131282438225
vn -1.4802697429779733e-16 -0.999981339432513 -0.006109074132566312
usemtl none
f 1/1/1 2/2/1 3/3/1
f 3/4/2 2/5/2 4/6/2
f 4/7/3 2/8/3 1/9/3
f 4/10/4 1/11/4 3/12/4