# Made in Blockbench 5.1.6
mtllib mine.mtl

o cone
v 1.3877787807814458e-18 0 -1.3877787807814457e-17
v 1.3877787807814458e-18 0.25 -1.3877787807814457e-17
v 0.15533008588991068 0 0.37499999999999994
v 0.375 0 0.1553300858899107
v 0.375 0 -0.15533008588991065
v 0.15533008588991074 0 -0.375
v -0.15533008588991062 0 -0.37500000000000006
v -0.37499999999999994 0 -0.1553300858899109
v -0.375 0 0.15533008588991076
v -0.1553300858899109 0 0.3749999999999999
vt 0.5411958968701283 0.6173160173447557
vt 0.38268259459790344 1
vt 0 0.6173160173447558
vt 0 0.29288749999999997
vt 0.4142125 0.29288749999999997
vt 0.20710625 1
vt 0.5 0.5857875
vt 0.5 1
vt 0 0.79289375
vt 0 0.29288749999999997
vt 0.4142125 0.29288749999999997
vt 0.20710625 1
vt 0 0.45880410312987174
vt 0.3826839826552443 0.6173174054020966
vt 1.1102230246251565e-16 1
vt 0 0.29288749999999997
vt 0.4142125 0.29288749999999997
vt 0.20710625 1
vt 0 0.5
vt 0.4142125 0.5
vt 0.20710625 1
vt 0 0.29288749999999997
vt 0.4142125 0.29288749999999997
vt 0.20710625 1
vt 0 1
vt 0.15851330227222482 0.6173160173447557
vt 0.5411958968701283 0.9999999999999999
vt 0 0.29288749999999997
vt 0.4142125 0.29288749999999997
vt 0.20710625 1
vt 0 1
vt 0 0.5857875
vt 0.5 0.79289375
vt 0 0.29288749999999997
vt 0.4142125 0.29288749999999997
vt 0.20710625 1
vt 0.3826839826552442 1
vt 0 0.841486697727775
vt 0.3826839826552444 0.45880410312987174
vt 0 0.29288749999999997
vt 0.4142125 0.29288749999999997
vt 0.20710625 1
vt 0.4142125 1
vt 0 1
vt 0.20710625 0.5
vt 0 0.29288749999999997
vt 0.4142125 0.29288749999999997
vt 0.20710625 1
vn 0 -1 0
vn 0.39223227027636803 0.8320502943378437 0.39223227027636814
vn 0 -1 0
vn 0.5547001962252291 0.8320502943378437 0
vn 0 -1 0
vn 0.39223227027636814 0.8320502943378438 -0.39223227027636803
vn 0 -1 0
vn 9.911810163579893e-17 0.8320502943378437 -0.5547001962252291
vn 0 -1 0
vn -0.39223227027636787 0.8320502943378437 -0.39223227027636814
vn 0 -1 0
vn -0.5547001962252293 0.8320502943378438 -9.911810163579885e-17
vn 0 -1 0
vn -0.3922322702763681 0.8320502943378439 0.39223227027636803
vn 0 -1 0
vn -9.911810163579887e-17 0.8320502943378437 0.5547001962252293
usemtl none
f 4/1/1 3/2/1 1/3/1
f 3/4/2 4/5/2 2/6/2
f 5/7/3 4/8/3 1/9/3
f 4/10/4 5/11/4 2/12/4
f 6/13/5 5/14/5 1/15/5
f 5/16/6 6/17/6 2/18/6
f 7/19/7 6/20/7 1/21/7
f 6/22/8 7/23/8 2/24/8
f 8/25/9 7/26/9 1/27/9
f 7/28/10 8/29/10 2/30/10
f 9/31/11 8/32/11 1/33/11
f 8/34/12 9/35/12 2/36/12
f 10/37/13 9/38/13 1/39/13
f 9/40/14 10/41/14 2/42/14
f 3/43/15 10/44/15 1/45/15
f 10/46/16 3/47/16 2/48/16