# Made in Blockbench 5.1.6
mtllib powerup.mtl

o torus
v 0.2301186457628306 -0.5555555555555556 0.06250000000000012
v 0.25888347648318444 -0.6250000000000001 1.4260489932548007e-16
v 0.2301186457628306 -0.5555555555555556 -0.062499999999999875
v 0.2013538150424768 -0.4861111111111111 9.645728587432823e-17
v 0.5555555555555555 -0.2301186457628306 0.06250000000000006
v 0.625 -0.25888347648318444 6.13107005046628e-17
v 0.5555555555555555 -0.23011864576283064 -0.06249999999999995
v 0.4861111111111111 -0.20135381504247682 3.322846456924815e-17
v 0.5555555555555555 0.2301186457628306 0.06249999999999995
v 0.625 0.2588834764831844 -5.365665800999183e-17
v 0.5555555555555555 0.23011864576283053 -0.06250000000000006
v 0.4861111111111111 0.20135381504247676 -5.619059205326102e-17
v 0.23011864576283064 0.5555555555555556 0.062499999999999875
v 0.2588834764831845 0.6250000000000001 -1.3495085683080912e-16
v 0.23011864576283064 0.5555555555555556 -0.06250000000000012
v 0.20135381504247685 0.4861111111111111 -1.194194133583411e-16
v -0.23011864576283053 0.5555555555555557 0.062499999999999875
v -0.2588834764831843 0.6250000000000001 -1.3495085683080912e-16
v -0.23011864576283053 0.5555555555555557 -0.06250000000000012
v -0.20135381504247674 0.48611111111111116 -1.1941941335834112e-16
v -0.5555555555555555 0.23011864576283098 0.06249999999999995
v -0.625 0.2588834764831848 -5.365665800999193e-17
v -0.5555555555555555 0.23011864576283092 -0.06250000000000006
v -0.48611111111111105 0.20135381504247707 -5.619059205326108e-17
v -0.5555555555555555 -0.2301186457628307 0.06250000000000006
v -0.625 -0.2588834764831846 6.131070050466283e-17
v -0.5555555555555555 -0.23011864576283075 -0.06249999999999995
v -0.4861111111111111 -0.20135381504247687 3.3228464569248165e-17
v -0.23011864576283098 -0.5555555555555555 0.06250000000000012
v -0.2588834764831848 -0.6249999999999999 1.4260489932548002e-16
v -0.23011864576283098 -0.5555555555555555 -0.062499999999999875
v -0.2013538150424771 -0.48611111111111105 9.645728587432822e-17
vt 0.025887500000000008 0.9999999999999969
vt 0 0.9078999999999969
vt 0.4659875 0.9078999999999969
vt 0.4401 0.9999999999999969
vt 0 1
vt 0.025887500000000008 0.9078999999999999
vt 0.4401 0.9078999999999999
vt 0.4659875 1
vt 0.4142125 0.9078999999999968
vt 0.38832500000000003 0.9999999999999969
vt 0.02588749999999998 0.9999999999999969
vt 0 0.9078999999999968
vt 0.38832500000000003 0.9079
vt 0.4142125 1
vt 0 1
vt 0.02588749999999998 0.9079
vt 0.025887500000000008 0.9999999999999969
vt 0 0.9078999999999969
vt 0.4659875 0.9078999999999969
vt 0.4401 0.9999999999999969
vt 0 1
vt 0.025887500000000008 0.9078999999999999
vt 0.4401 0.9078999999999999
vt 0.4659875 1
vt 0.4142125 0.9078999999999968
vt 0.38832500000000003 0.9999999999999969
vt 0.02588749999999998 0.9999999999999969
vt 0 0.9078999999999968
vt 0.38832500000000003 0.9079
vt 0.4142125 1
vt 0 1
vt 0.02588749999999998 0.9079
vt 0.025887500000000008 0.9999999999999969
vt 0 0.9078999999999969
vt 0.4659875 0.9078999999999969
vt 0.4401 0.9999999999999969
vt 0 1
vt 0.025887500000000008 0.9078999999999999
vt 0.4401 0.9078999999999999
vt 0.4659875 1
vt 0.4142125 0.9078999999999968
vt 0.38832500000000003 0.9999999999999969
vt 0.02588749999999998 0.9999999999999969
vt 0 0.9078999999999968
vt 0.38832500000000003 0.9079
vt 0.4142125 1
vt 0 1
vt 0.02588749999999998 0.9079
vt 0.025887500000000008 0.9999999999999969
vt 0 0.9078999999999969
vt 0.4659875 0.9078999999999969
vt 0.4401 0.9999999999999969
vt 0 1
vt 0.025887500000000008 0.9078999999999999
vt 0.4401 0.9078999999999999
vt 0.4659875 1
vt 0.4142125 0.9078999999999968
vt 0.38832500000000003 0.9999999999999969
vt 0.02588749999999998 0.9999999999999969
vt 0 0.9078999999999968
vt 0.38832500000000003 0.9079
vt 0.4142125 1
vt 0 1
vt 0.02588749999999998 0.9079
vt 0.025887500000000008 0.9999999999999969
vt 0 0.9078999999999969
vt 0.4659875 0.9078999999999969
vt 0.4401 0.9999999999999969
vt 0 1
vt 0.025887500000000008 0.9078999999999999
vt 0.4401 0.9078999999999999
vt 0.4659875 1
vt 0.4142125 0.9078999999999968
vt 0.38832500000000003 0.9999999999999969
vt 0.02588749999999998 0.9999999999999969
vt 0 0.9078999999999968
vt 0.38832500000000003 0.9079
vt 0.4142125 1
vt 0 1
vt 0.02588749999999998 0.9079
vt 0.025887500000000008 0.9999999999999969
vt 0 0.9078999999999969
vt 0.4659875 0.9078999999999969
vt 0.4401 0.9999999999999969
vt 0 1
vt 0.025887500000000008 0.9078999999999999
vt 0.4401 0.9078999999999999
vt 0.4659875 1
vt 0.4142125 0.9078999999999968
vt 0.38832500000000003 0.9999999999999969
vt 0.02588749999999998 0.9999999999999969
vt 0 0.9078999999999968
vt 0.38832500000000003 0.9079
vt 0.4142125 1
vt 0 1
vt 0.02588749999999998 0.9079
vt 0.025887500000000008 0.9999999999999969
vt 0 0.9078999999999969
vt 0.4659875 0.9078999999999969
vt 0.4401 0.9999999999999969
vt 0 1
vt 0.025887500000000008 0.9078999999999999
vt 0.4401 0.9078999999999999
vt 0.4659875 1
vt 0.4142125 0.9078999999999968
vt 0.38832500000000003 0.9999999999999969
vt 0.02588749999999998 0.9999999999999969
vt 0 0.9078999999999968
vt 0.38832500000000003 0.9079
vt 0.4142125 1
vt 0 1
vt 0.02588749999999998 0.9079
vt 0.025887500000000008 0.9999999999999969
vt 0 0.9078999999999969
vt 0.4659875 0.9078999999999969
vt 0.4401 0.9999999999999969
vt 0 1
vt 0.025887500000000008 0.9078999999999999
vt 0.4401 0.9078999999999999
vt 0.4659875 1
vt 0.4142125 0.9078999999999968
vt 0.38832500000000003 0.9999999999999969
vt 0.02588749999999998 0.9999999999999969
vt 0 0.9078999999999968
vt 0.38832500000000003 0.9079
vt 0.4142125 1
vt 0 1
vt 0.02588749999999998 0.9079
vn 0.47302949810487277 -0.4730294981048725 0.7432941462471668
vn 0.4730294981048728 -0.4730294981048728 -0.7432941462471666
vn -0.47302949810487294 0.4730294981048728 -0.7432941462471665
vn -0.4730294981048731 0.4730294981048732 0.7432941462471663
vn 0.6689647316224492 1.650444550465406e-16 0.7432941462471668
vn 0.6689647316224493 -1.6504445504654058e-16 -0.7432941462471667
vn -0.6689647316224501 -1.6504445504654043e-16 -0.743294146247166
vn -0.6689647316224502 1.6504445504654038e-16 0.7432941462471658
vn 0.47302949810487294 0.47302949810487277 0.7432941462471666
vn 0.4730294981048729 0.4730294981048725 -0.7432941462471667
vn -0.4730294981048734 -0.4730294981048733 -0.7432941462471659
vn -0.47302949810487355 -0.47302949810487305 0.7432941462471662
vn 0 0.6689647316224493 0.7432941462471667
vn 1.613732875159729e-16 0.6689647316224491 -0.7432941462471668
vn -9.221330715198456e-17 -0.6689647316224495 -0.7432941462471665
vn -1.6137328751597298e-16 -0.6689647316224495 0.7432941462471666
vn -0.4730294981048728 0.4730294981048735 0.7432941462471662
vn -0.4730294981048731 0.4730294981048732 -0.7432941462471663
vn 0.47302949810487266 -0.4730294981048732 -0.7432941462471666
vn 0.4730294981048728 -0.4730294981048729 0.7432941462471666
vn -0.6689647316224493 1.650444550465406e-16 0.7432941462471668
vn -0.6689647316224493 -1.650444550465406e-16 -0.7432941462471668
vn 0.6689647316224497 -2.57257762198525e-16 -0.7432941462471663
vn 0.66896473162245 1.6504445504654045e-16 0.7432941462471662
vn -0.4730294981048727 -0.4730294981048723 0.7432941462471669
vn -0.4730294981048729 -0.4730294981048726 -0.7432941462471667
vn 0.47302949810487327 0.4730294981048728 -0.7432941462471664
vn 0.47302949810487344 0.4730294981048732 0.743294146247166
vn -2.8688584447284076e-16 -0.6689647316224496 0.7432941462471664
vn -1.6137328751597293e-16 -0.66896473162245 -0.7432941462471662
vn 9.221330715198453e-17 0.6689647316224496 -0.7432941462471665
vn 1.613732875159729e-16 0.66896473162245 0.743294146247166
usemtl none
f 1/1/1 2/2/1 6/3/1 5/4/1
f 2/5/2 3/6/2 7/7/2 6/8/2
f 3/9/3 4/10/3 8/11/3 7/12/3
f 4/13/4 1/14/4 5/15/4 8/16/4
f 5/17/5 6/18/5 10/19/5 9/20/5
f 6/21/6 7/22/6 11/23/6 10/24/6
f 7/25/7 8/26/7 12/27/7 11/28/7
f 8/29/8 5/30/8 9/31/8 12/32/8
f 9/33/9 10/34/9 14/35/9 13/36/9
f 10/37/10 11/38/10 15/39/10 14/40/10
f 11/41/11 12/42/11 16/43/11 15/44/11
f 12/45/12 9/46/12 13/47/12 16/48/12
f 13/49/13 14/50/13 18/51/13 17/52/13
f 14/53/14 15/54/14 19/55/14 18/56/14
f 15/57/15 16/58/15 20/59/15 19/60/15
f 16/61/16 13/62/16 17/63/16 20/64/16
f 17/65/17 18/66/17 22/67/17 21/68/17
f 18/69/18 19/70/18 23/71/18 22/72/18
f 19/73/19 20/74/19 24/75/19 23/76/19
f 20/77/20 17/78/20 21/79/20 24/80/20
f 21/81/21 22/82/21 26/83/21 25/84/21
f 22/85/22 23/86/22 27/87/22 26/88/22
f 23/89/23 24/90/23 28/91/23 27/92/23
f 24/93/24 21/94/24 25/95/24 28/96/24
f 25/97/25 26/98/25 30/99/25 29/100/25
f 26/101/26 27/102/26 31/103/26 30/104/26
f 27/105/27 28/106/27 32/107/27 31/108/27
f 28/109/28 25/110/28 29/111/28 32/112/28
f 29/113/29 30/114/29 2/115/29 1/116/29
f 30/117/30 31/118/30 3/119/30 2/120/30
f 31/121/31 32/122/31 4/123/31 3/124/31
f 32/125/32 29/126/32 1/127/32 4/128/32
o unknown
v -0.311416 -0.3413162475772432 -0.015669404078996335
v -0.186416 -0.32212037232602353 0.1093305959210036
v -0.186416 0.4086837524227568 -0.011087512978883704
v -0.061416000000000026 -0.3413162475772432 -0.01566940407899639
vt 0.375 0
vt 0.75 0
vt 0.5 0.25
vt 0.5 0.5
vt 0.625 0.875
vt 0.375 0.75
vt 0.375 0.75
vt 0.625 0.875
vt 0.375 1
vt 0.125 0
vt 0.375 0
vt 0.5 0.25
vn -0.7111941581042815 0.11429476866230932 0.6936422531354124
vn 0.7111941581042818 0.11429476866230925 0.6936422531354122
vn 3.37036267453716e-17 -0.9884131282438225 0.15178764085149005
vn -2.22040461446696e-16 0.00610907413256609 -0.9999813394325131
usemtl none
f 33/129/33 34/130/33 35/131/33
f 35/132/34 34/133/34 36/134/34
f 36/135/35 34/136/35 33/137/35
f 36/138/36 33/139/36 35/140/36
o unknown
v 0.06358399999999997 -0.3413162475772432 -0.015669404078996335
v 0.188584 -0.32212037232602353 0.1093305959210036
v 0.188584 0.4086837524227568 -0.011087512978883704
v 0.313584 -0.3413162475772432 -0.01566940407899639
vt 0.375 0
vt 0.75 0
vt 0.5 0.25
vt 0.5 0.5
vt 0.625 0.875
vt 0.375 0.75
vt 0.375 0.75
vt 0.625 0.875
vt 0.375 1
vt 0.125 0
vt 0.375 0
vt 0.5 0.25
vn -0.7111941581042815 0.11429476866230932 0.6936422531354124
vn 0.7111941581042818 0.11429476866230925 0.6936422531354122
vn 3.37036267453716e-17 -0.9884131282438225 0.15178764085149005
vn -2.22040461446696e-16 0.00610907413256609 -0.9999813394325131
usemtl none
f 37/141/37 38/142/37 39/143/37
f 39/144/38 38/145/38 40/146/38
f 40/147/39 38/148/39 37/149/39
f 40/150/40 37/151/40 39/152/40