# Made in Blockbench 5.1.6
mtllib ring.mtl

o torus
v 0.20710678118654752 -0.5 0.06250000000000012
v 0.23299512883486595 -0.5625000000000001 1.4260489932548007e-16
v 0.5625 -0.23299512883486598 6.13107005046628e-17
v 0.49999999999999983 -0.20710678118654754 0.06250000000000006
v 0.20710678118654752 -0.5 -0.062499999999999875
v 0.49999999999999983 -0.2071067811865476 -0.06249999999999995
v 0.18121843353822906 -0.4375 9.645728587432823e-17
v 0.4374999999999999 -0.1812184335382291 3.322846456924815e-17
v 0.5625 0.23299512883486592 -5.365665800999183e-17
v 0.49999999999999983 0.20710678118654754 0.06249999999999995
v 0.49999999999999983 0.2071067811865475 -0.06250000000000006
v 0.4374999999999999 0.18121843353822906 -5.619059205326102e-17
v 0.232995128834866 0.5625000000000001 -1.3495085683080912e-16
v 0.20710678118654757 0.5 0.062499999999999875
v 0.20710678118654757 0.5 -0.06250000000000012
v 0.1812184335382291 0.4375 -1.194194133583411e-16
v -0.2329951288348659 0.5625000000000001 -1.3495085683080912e-16
v -0.20710678118654738 0.5000000000000001 0.062499999999999875
v -0.20710678118654738 0.5000000000000001 -0.06250000000000012
v -0.18121843353822903 0.43750000000000006 -1.1941941335834112e-16
v -0.5625 0.23299512883486637 -5.365665800999193e-17
v -0.49999999999999983 0.20710678118654785 0.06249999999999995
v -0.49999999999999983 0.2071067811865478 -0.06250000000000006
v -0.4374999999999998 0.18121843353822936 -5.619059205326108e-17
v -0.5625 -0.23299512883486612 6.131070050466283e-17
v -0.49999999999999983 -0.20710678118654763 0.06250000000000006
v -0.49999999999999983 -0.20710678118654768 -0.06249999999999995
v -0.4374999999999999 -0.1812184335382292 3.3228464569248165e-17
v -0.23299512883486634 -0.5624999999999999 1.4260489932548002e-16
v -0.2071067811865478 -0.49999999999999994 0.06250000000000012
v -0.2071067811865478 -0.49999999999999994 -0.062499999999999875
v -0.1812184335382294 -0.4374999999999999 9.645728587432822e-17
vt 0.025887500000000008 0.9999999999999969
vt 0 0.9078999999999969
vt 0.4659875 0.9078999999999969
vt 0.4401 0.9999999999999969
vt 0 1
vt 0.025887500000000008 0.9078999999999999
vt 0.4401 0.9078999999999999
vt 0.4659875 1
vt 0.4142125 0.9078999999999968
vt 0.38832500000000003 0.9999999999999969
vt 0.02588749999999998 0.9999999999999969
vt 0 0.9078999999999968
vt 0.38832500000000003 0.9079
vt 0.4142125 1
vt 0 1
vt 0.02588749999999998 0.9079
vt 0.025887500000000008 0.9999999999999969
vt 0 0.9078999999999969
vt 0.4659875 0.9078999999999969
vt 0.4401 0.9999999999999969
vt 0 1
vt 0.025887500000000008 0.9078999999999999
vt 0.4401 0.9078999999999999
vt 0.4659875 1
vt 0.4142125 0.9078999999999968
vt 0.38832500000000003 0.9999999999999969
vt 0.02588749999999998 0.9999999999999969
vt 0 0.9078999999999968
vt 0.38832500000000003 0.9079
vt 0.4142125 1
vt 0 1
vt 0.02588749999999998 0.9079
vt 0.025887500000000008 0.9999999999999969
vt 0 0.9078999999999969
vt 0.4659875 0.9078999999999969
vt 0.4401 0.9999999999999969
vt 0 1
vt 0.025887500000000008 0.9078999999999999
vt 0.4401 0.9078999999999999
vt 0.4659875 1
vt 0.4142125 0.9078999999999968
vt 0.38832500000000003 0.9999999999999969
vt 0.02588749999999998 0.9999999999999969
vt 0 0.9078999999999968
vt 0.38832500000000003 0.9079
vt 0.4142125 1
vt 0 1
vt 0.02588749999999998 0.9079
vt 0.025887500000000008 0.9999999999999969
vt 0 0.9078999999999969
vt 0.4659875 0.9078999999999969
vt 0.4401 0.9999999999999969
vt 0 1
vt 0.025887500000000008 0.9078999999999999
vt 0.4401 0.9078999999999999
vt 0.4659875 1
vt 0.4142125 0.9078999999999968
vt 0.38832500000000003 0.9999999999999969
vt 0.02588749999999998 0.9999999999999969
vt 0 0.9078999999999968
vt 0.38832500000000003 0.9079
vt 0.4142125 1
vt 0 1
vt 0.02588749999999998 0.9079
vt 0.025887500000000008 0.9999999999999969
vt 0 0.9078999999999969
vt 0.4659875 0.9078999999999969
vt 0.4401 0.9999999999999969
vt 0 1
vt 0.025887500000000008 0.9078999999999999
vt 0.4401 0.9078999999999999
vt 0.4659875 1
vt 0.4142125 0.9078999999999968
vt 0.38832500000000003 0.9999999999999969
vt 0.02588749999999998 0.9999999999999969
vt 0 0.9078999999999968
vt 0.38832500000000003 0.9079
vt 0.4142125 1
vt 0 1
vt 0.02588749999999998 0.9079
vt 0.025887500000000008 0.9999999999999969
vt 0 0.9078999999999969
vt 0.4659875 0.9078999999999969
vt 0.4401 0.9999999999999969
vt 0 1
vt 0.025887500000000008 0.9078999999999999
vt 0.4401 0.9078999999999999
vt 0.4659875 1
vt 0.4142125 0.9078999999999968
vt 0.38832500000000003 0.9999999999999969
vt 0.02588749999999998 0.9999999999999969
vt 0 0.9078999999999968
vt 0.38832500000000003 0.9079
vt 0.4142125 1
vt 0 1
vt 0.02588749999999998 0.9079
vt 0.025887500000000008 0.9999999999999969
vt 0 0.9078999999999969
vt 0.4659875 0.9078999999999969
vt 0.4401 0.9999999999999969
vt 0 1
vt 0.025887500000000008 0.9078999999999999
vt 0.4401 0.9078999999999999
vt 0.4659875 1
vt 0.4142125 0.9078999999999968
vt 0.38832500000000003 0.9999999999999969
vt 0.02588749999999998 0.9999999999999969
vt 0 0.9078999999999968
vt 0.38832500000000003 0.9079
vt 0.4142125 1
vt 0 1
vt 0.02588749999999998 0.9079
vt 0.025887500000000008 0.9999999999999969
vt 0 0.9078999999999969
vt 0.4659875 0.9078999999999969
vt 0.4401 0.9999999999999969
vt 0 1
vt 0.025887500000000008 0.9078999999999999
vt 0.4401 0.9078999999999999
vt 0.4659875 1
vt 0.4142125 0.9078999999999968
vt 0.38832500000000003 0.9999999999999969
vt 0.02588749999999998 0.9999999999999969
vt 0 0.9078999999999968
vt 0.38832500000000003 0.9079
vt 0.4142125 1
vt 0 1
vt 0.02588749999999998 0.9079
vn 0.49999999999999983 -0.49999999999999956 0.707106781186548
vn 0.4999999999999997 -0.49999999999999983 -0.7071067811865479
vn -0.5000000000000001 0.4999999999999998 -0.7071067811865478
vn -0.5000000000000001 0.5000000000000001 0.7071067811865475
vn 0.7071067811865466 1.8952692539670418e-16 0.7071067811865485
vn 0.7071067811865467 -1.6583605972211612e-16 -0.7071067811865485
vn -0.7071067811865478 -1.7598928786836852e-16 -0.7071067811865474
vn -0.7071067811865479 1.8952692539670445e-16 0.7071067811865471
vn 0.4999999999999997 0.49999999999999967 0.707106781186548
vn 0.49999999999999983 0.4999999999999992 -0.7071067811865482
vn -0.5000000000000003 -0.5000000000000001 -0.7071067811865474
vn -0.5000000000000003 -0.49999999999999983 0.7071067811865475
vn 0 0.707106781186547 0.7071067811865481
vn 1.7768149255941029e-16 0.7071067811865469 -0.7071067811865482
vn -1.0830110022668823e-16 -0.7071067811865476 -0.7071067811865476
vn -1.7768149255941046e-16 -0.7071067811865475 0.7071067811865477
vn -0.4999999999999994 0.5000000000000002 0.7071067811865479
vn -0.4999999999999997 0.49999999999999983 -0.7071067811865479
vn 0.5 -0.5000000000000003 -0.7071067811865474
vn 0.5 -0.5000000000000001 0.7071067811865475
vn -0.7071067811865466 1.684683781304035e-16 0.7071067811865486
vn -0.7071067811865467 -1.8952692539670398e-16 -0.7071067811865485
vn 0.7071067811865471 -3.7905385079340826e-16 -0.7071067811865479
vn 0.7071067811865475 1.658360597221161e-16 0.7071067811865477
vn -0.4999999999999996 -0.49999999999999917 0.7071067811865486
vn -0.4999999999999997 -0.4999999999999994 -0.7071067811865481
vn 0.5000000000000002 0.4999999999999998 -0.7071067811865477
vn 0.5000000000000004 0.5000000000000002 0.7071067811865472
vn -3.2640748262765754e-16 -0.7071067811865477 0.7071067811865475
vn -9.476346269835216e-17 -0.7071067811865479 -0.7071067811865471
vn 2.1660220045337624e-16 0.7071067811865471 -0.707106781186548
vn 9.476346269835209e-17 0.7071067811865475 0.7071067811865477
usemtl none
f 1/1/1 2/2/1 3/3/1 4/4/1
f 2/5/2 5/6/2 6/7/2 3/8/2
f 5/9/3 7/10/3 8/11/3 6/12/3
f 7/13/4 1/14/4 4/15/4 8/16/4
f 4/17/5 3/18/5 9/19/5 10/20/5
f 3/21/6 6/22/6 11/23/6 9/24/6
f 6/25/7 8/26/7 12/27/7 11/28/7
f 8/29/8 4/30/8 10/31/8 12/32/8
f 10/33/9 9/34/9 13/35/9 14/36/9
f 9/37/10 11/38/10 15/39/10 13/40/10
f 11/41/11 12/42/11 16/43/11 15/44/11
f 12/45/12 10/46/12 14/47/12 16/48/12
f 14/49/13 13/50/13 17/51/13 18/52/13
f 13/53/14 15/54/14 19/55/14 17/56/14
f 15/57/15 16/58/15 20/59/15 19/60/15
f 16/61/16 14/62/16 18/63/16 20/64/16
f 18/65/17 17/66/17 21/67/17 22/68/17
f 17/69/18 19/70/18 23/71/18 21/72/18
f 19/73/19 20/74/19 24/75/19 23/76/19
f 20/77/20 18/78/20 22/79/20 24/80/20
f 22/81/21 21/82/21 25/83/21 26/84/21
f 21/85/22 23/86/22 27/87/22 25/88/22
f 23/89/23 24/90/23 28/91/23 27/92/23
f 24/93/24 22/94/24 26/95/24 28/96/24
f 26/97/25 25/98/25 29/99/25 30/100/25
f 25/101/26 27/102/26 31/103/26 29/104/26
f 27/105/27 28/106/27 32/107/27 31/108/27
f 28/109/28 26/110/28 30/111/28 32/112/28
f 30/113/29 29/114/29 2/115/29 1/116/29
f 29/117/30 31/118/30 5/119/30 2/120/30
f 31/121/31 32/122/31 7/123/31 5/124/31
f 32/125/32 30/126/32 1/127/32 7/128/32