# Made in Blockbench 5.1.6
mtllib ship.mtl

o unknown
v 0.2774300409479981 -0.0014854518729475073 0.06450075482422093
v 0.566785549248731 -1.4534228016671595e-7 -0.004827026165046405
v 0.5667862630493751 -0.25000050000000007 0.49131595238361636
v 0.5667862630493751 0.24999949999999993 0.5617501615061886
v 0 -0.19936247076201769 0.06450075482422093
v 0.2774300409479981 -0.0029707584036147584 0.3899204123078142
v -0.2774300409479981 -0.0029707584036147584 0.3899204123078142
v 0.17398962067974924 0.1813519517488172 0.06450075482422093
v 0 -0.0029707584036147584 -1.6454384999999965
v 0.8125000000000006 -0.14897412055879877 1.4795614999999964
v 0.5431765929614435 -0.022052762361594966 0.22617716022156553
v 0.5376724761985918 -0.15034309935736026 0.4829212128296595
v -0.2774307547486415 -0.0014854518729475073 0.06450075482422093
v -0.5667862630493751 -0.25000050000000007 0.49131595238361636
v -0.566785549248731 -1.4534228016671595e-7 -0.004827026165046405
v -0.5667862630493751 0.24999949999999993 0.5617501615061886
v -0.17398962067974924 0.1813519517488172 0.06450075482422093
v -0.8125000000000006 -0.14897412055879877 1.4795614999999964
v -0.5431765929614435 -0.022052762361594966 0.22617716022156553
v -0.5376724761985918 -0.15034309935736026 0.4829212128296595
vt 0 1
vt 0.5 0.5
vt 1 1
vt 0 0
vt 0.5 0.5
vt 0 1
vt 0.5 0
vt 0.625 0.25
vt 0.625 0.25
vt 0.5 0
vt 0.875 0.25
vt 0.625 0.25
vt 0.625 0.25
vt 0.625 0.5
vt 0.625 0.375
vt 0.625 0.5
vt 0.5 0.75
vt 0.5 0.55
vt 0.625 0.375
vt 0.625 0.5
vt 0.5 0.55
vt 0.5 0.166667
vt 0.625 0.5
vt 0.375 0.5
vt 0.375 0.5
vt 0.625 0.5
vt 0.5 0.75
vt 0.5 0.166667
vt 0.875 0
vt 0.875 0.25
vt 0.125 0
vt 0.5 0.166667
vt 0.125 0.25
vt 0 1
vt 1 1
vt 0.5 0.5
vt 0 0
vt 0 1
vt 0.5 0.5
vt 0.5 0
vt 0.625 0.25
vt 0.875 0.25
vt 0.625 0.25
vt 0.625 0.375
vt 0.625 0.5
vt 0.625 0.5
vt 0.5 0.55
vt 0.5 0.75
vt 0.625 0.375
vt 0.5 0.55
vt 0.625 0.5
vt 0.5 0.166667
vt 0.375 0.5
vt 0.625 0.5
vt 0.375 0.5
vt 0.5 0.75
vt 0.625 0.5
vt 0.5 0.166667
vt 0.875 0.25
vt 0.875 0
vt 0.125 0
vt 0.125 0.25
vt 0.5 0.166667
vt 0.5 0.55
vt 0.625 0.375
vt 0.625 0.375
vt 0.625 0.375
vt 0.625 0.375
vt 0.625 0.25
vt 0.625 0.25
vn -0.10268475875934957 -0.888313566912518 -0.44761015086534134
vn -0.10090102986559002 0.9102253245073617 -0.40163271878363177
vn 0 -0.8561669660314226 0.5166992609599407
vn 0.5806757893482132 -0.81412641508763 -0.0037159011550473024
vn 0.8703616696945051 0.4924078723236546 0.0022474875493689686
vn 0.5781577997698134 -0.8105961114891423 -0.09309942322061072
vn 0.8617624548963235 0.48754285906553063 -0.14024062145209742
vn 0.018073378397933493 0.9951313418771962 0.09688635304817853
vn 0.19656905924589851 -0.8787670030903857 -0.4348898242391106
vn 0.8370040152442708 -0.49645406926631575 -0.23012526061665772
vn -0.7042020971664482 -0.6826609274487274 0.1951242283295947
vn 0.10268500939827391 -0.8883135438066565 -0.4476101392222208
vn 0.10090127624108186 0.9102253016469221 -0.40163270869625484
vn -0.5806748018357686 -0.8141271252278471 -0.003714630699308884
vn -0.8703602096752105 0.49241044421900476 0.002249408403614295
vn -0.5781568094630833 -0.8105968086285408 -0.09309950328918615
vn -0.8617609975532773 0.48754539890348564 -0.1402407469461761
vn -0.018073434246993828 0.9951313420297611 0.09688634106295181
vn -0.19656956125459904 -0.8787669173304785 -0.43488977062430717
vn -0.8370040152442708 -0.49645406926631575 -0.23012526061665772
vn 0.7042037148843012 -0.6826591318787651 0.1951246719553444
vn 0 0.994240277604264 -0.10717401919026859
vn 0 0.8701159425927893 0.492847082212994
usemtl none
f 1/1/1 2/2/1 3/3/1
f 4/4/2 2/5/2 1/6/2
f 5/7/3 6/8/3 7/9/3
f 5/10/4 1/11/4 6/12/4
f 6/13/5 1/14/5 8/15/5
f 1/16/6 5/17/6 9/18/6
f 8/19/7 1/20/7 9/21/7
f 10/22/8 11/23/8 1/24/8
f 1/25/9 11/26/9 12/27/9
f 10/28/10 12/29/10 11/30/10
f 12/31/11 10/32/11 1/33/11
f 13/34/12 14/35/12 15/36/12
f 16/37/13 13/38/13 15/39/13
f 5/40/14 7/41/14 13/42/14
f 7/43/15 17/44/15 13/45/15
f 13/46/16 9/47/16 5/48/16
f 17/49/17 9/50/17 13/51/17
f 18/52/18 13/53/18 19/54/18
f 13/55/19 20/56/19 19/57/19
f 18/58/20 19/59/20 20/60/20
f 20/61/21 13/62/21 18/63/21
f 9/64/22 17/65/22 8/66/22
f 8/67/23 17/68/23 7/69/23 6/70/23