# Made in Blockbench 5.1.6
mtllib sphere.mtl

o sphere
v 1.734723475976807e-18 -0.46875 -3.469446951953614e-18
v 1.734723475976807e-18 0.46875 -3.469446951953614e-18
v 0.13729369631880586 0.33145630368119416 0.33145630368119416
v 0.19416260736238833 2.8702659355016093e-17 0.46874999999999994
v 0.13729369631880586 -0.3314563036811941 0.3314563036811942
v 0.33145630368119416 0.33145630368119416 0.13729369631880586
v 0.46875 2.8702659355016093e-17 0.19416260736238836
v 0.3314563036811943 -0.3314563036811941 0.1372936963188059
v 0.33145630368119416 0.33145630368119416 -0.13729369631880584
v 0.46875 2.8702659355016093e-17 -0.1941626073623883
v 0.3314563036811943 -0.3314563036811941 -0.13729369631880586
v 0.1372936963188059 0.33145630368119416 -0.33145630368119416
v 0.19416260736238838 2.8702659355016093e-17 -0.46875
v 0.1372936963188059 -0.3314563036811941 -0.3314563036811942
v -0.13729369631880584 0.33145630368119416 -0.33145630368119416
v -0.19416260736238827 2.8702659355016093e-17 -0.46875000000000006
v -0.13729369631880584 -0.3314563036811941 -0.3314563036811942
v -0.331456303681194 0.33145630368119416 -0.13729369631880606
v -0.46874999999999983 2.8702659355016093e-17 -0.1941626073623886
v -0.331456303681194 -0.3314563036811941 -0.13729369631880609
v -0.331456303681194 0.33145630368119416 0.13729369631880592
v -0.46875 2.8702659355016093e-17 0.1941626073623884
v -0.33145630368119416 -0.3314563036811941 0.13729369631880595
v -0.13729369631880609 0.33145630368119416 0.33145630368119405
v -0.19416260736238863 2.8702659355016093e-17 0.4687499999999999
v -0.13729369631880609 -0.3314563036811941 0.3314563036811941
vt 0 0.6173124999999999
vt 0.2928875 0.6173124999999999
vt 0.14644375 1
vt 0.06066249999999998 1
vt 0 0.6173124999999999
vt 0.4142125 0.6173124999999999
vt 0.35355000000000003 1
vt 0 1
vt 0.06066249999999998 0.6173124999999999
vt 0.35355000000000003 0.6173124999999999
vt 0.4142125 1
vt 0.2928875 1
vt 0 1
vt 0.14644375 0.6173124999999999
vt 0 0.6173124999999999
vt 0.2928875 0.6173124999999999
vt 0.14644375 1
vt 0.06066249999999998 1
vt 0 0.6173124999999999
vt 0.4142125 0.6173124999999999
vt 0.35355000000000003 1
vt 0 1
vt 0.06066249999999998 0.6173124999999999
vt 0.35355000000000003 0.6173124999999999
vt 0.4142125 1
vt 0.2928875 1
vt 0 1
vt 0.14644375 0.6173124999999999
vt 0 0.6173124999999999
vt 0.2928875 0.6173124999999999
vt 0.14644375 1
vt 0.06066249999999998 1
vt 0 0.6173124999999999
vt 0.4142125 0.6173124999999999
vt 0.35355000000000003 1
vt 0 1
vt 0.06066249999999998 0.6173124999999999
vt 0.35355000000000003 0.6173124999999999
vt 0.4142125 1
vt 0.2928875 1
vt 0 1
vt 0.14644375 0.6173124999999999
vt 0 0.6173124999999999
vt 0.2928875 0.6173124999999999
vt 0.14644375 1
vt 0.06066249999999998 1
vt 0 0.6173124999999999
vt 0.4142125 0.6173124999999999
vt 0.35355000000000003 1
vt 0 1
vt 0.06066249999999998 0.6173124999999999
vt 0.35355000000000003 0.6173124999999999
vt 0.4142125 1
vt 0.2928875 1
vt 0 1
vt 0.14644375 0.6173124999999999
vt 0 0.6173124999999999
vt 0.2928875 0.6173124999999999
vt 0.14644375 1
vt 0.06066249999999998 1
vt 0 0.6173124999999999
vt 0.4142125 0.6173124999999999
vt 0.35355000000000003 1
vt 0 1
vt 0.06066249999999998 0.6173124999999999
vt 0.35355000000000003 0.6173124999999999
vt 0.4142125 1
vt 0.2928875 1
vt 0 1
vt 0.14644375 0.6173124999999999
vt 0 0.6173124999999999
vt 0.2928875 0.6173124999999999
vt 0.14644375 1
vt 0.06066249999999998 1
vt 0 0.6173124999999999
vt 0.4142125 0.6173124999999999
vt 0.35355000000000003 1
vt 0 1
vt 0.06066249999999998 0.6173124999999999
vt 0.35355000000000003 0.6173124999999999
vt 0.4142125 1
vt 0.2928875 1
vt 0 1
vt 0.14644375 0.6173124999999999
vt 0 0.6173124999999999
vt 0.2928875 0.6173124999999999
vt 0.14644375 1
vt 0.06066249999999998 1
vt 0 0.6173124999999999
vt 0.4142125 0.6173124999999999
vt 0.35355000000000003 1
vt 0 1
vt 0.06066249999999998 0.6173124999999999
vt 0.35355000000000003 0.6173124999999999
vt 0.4142125 1
vt 0.2928875 1
vt 0 1
vt 0.14644375 0.6173124999999999
vt 0 0.6173124999999999
vt 0.2928875 0.6173124999999999
vt 0.14644375 1
vt 0.06066249999999998 1
vt 0 0.6173124999999999
vt 0.4142125 0.6173124999999999
vt 0.35355000000000003 1
vt 0 1
vt 0.06066249999999998 0.6173124999999999
vt 0.35355000000000003 0.6173124999999999
vt 0.4142125 1
vt 0.2928875 1
vt 0 1
vt 0.14644375 0.6173124999999999
vn 0.27059805007309845 0.9238795325112868 0.27059805007309845
vn 0.6532814824381882 0.38268343236508984 0.6532814824381884
vn 0.6532814824381882 -0.3826834323650896 0.6532814824381885
vn 0.27059805007309845 -0.923879532511287 0.27059805007309856
vn 0.3826834323650897 0.9238795325112867 0
vn 0.9238795325112867 0.38268343236508984 0
vn 0.9238795325112868 -0.38268343236508945 0
vn 0.3826834323650897 -0.9238795325112867 0
vn 0.2705980500730985 0.9238795325112868 -0.27059805007309845
vn 0.6532814824381884 0.38268343236508995 -0.6532814824381882
vn 0.6532814824381884 -0.3826834323650895 -0.6532814824381884
vn 0.2705980500730985 -0.9238795325112867 -0.2705980500730985
vn 0 0.9238795325112868 -0.3826834323650897
vn 9.961247131523345e-17 0.38268343236508984 -0.9238795325112867
vn 0 -0.38268343236508956 -0.9238795325112868
vn 0 -0.9238795325112867 -0.38268343236508984
vn -0.27059805007309845 0.9238795325112868 -0.2705980500730985
vn -0.6532814824381881 0.3826834323650899 -0.6532814824381884
vn -0.6532814824381882 -0.3826834323650897 -0.6532814824381884
vn -0.27059805007309856 -0.9238795325112868 -0.27059805007309856
vn -0.38268343236509 0.9238795325112868 0
vn -0.9238795325112868 0.38268343236508984 -3.984498852609334e-16
vn -0.9238795325112867 -0.3826834323650898 -5.634932316620154e-16
vn -0.38268343236508995 -0.9238795325112867 -2.3209220587652193e-16
vn -0.2705980500730986 0.9238795325112868 0.27059805007309834
vn -0.6532814824381883 0.3826834323650903 0.6532814824381882
vn -0.6532814824381884 -0.38268343236508984 0.6532814824381883
vn -0.27059805007309856 -0.9238795325112867 0.27059805007309845
vn -1.5472813725101459e-16 0.9238795325112867 0.3826834323650898
vn -9.961247131523337e-17 0.3826834323650898 0.9238795325112867
vn -3.521832697887598e-16 -0.3826834323650897 0.923879532511287
vn -1.5472813725101459e-16 -0.9238795325112867 0.38268343236508984
usemtl none
f 3/1/1 6/2/1 2/3/1
f 3/4/2 4/5/2 7/6/2 6/7/2
f 4/8/3 5/9/3 8/10/3 7/11/3
f 8/12/4 5/13/4 1/14/4
f 6/15/5 9/16/5 2/17/5
f 6/18/6 7/19/6 10/20/6 9/21/6
f 7/22/7 8/23/7 11/24/7 10/25/7
f 11/26/8 8/27/8 1/28/8
f 9/29/9 12/30/9 2/31/9
f 9/32/10 10/33/10 13/34/10 12/35/10
f 10/36/11 11/37/11 14/38/11 13/39/11
f 14/40/12 11/41/12 1/42/12
f 12/43/13 15/44/13 2/45/13
f 12/46/14 13/47/14 16/48/14 15/49/14
f 13/50/15 14/51/15 17/52/15 16/53/15
f 17/54/16 14/55/16 1/56/16
f 15/57/17 18/58/17 2/59/17
f 15/60/18 16/61/18 19/62/18 18/63/18
f 16/64/19 17/65/19 20/66/19 19/67/19
f 20/68/20 17/69/20 1/70/20
f 18/71/21 21/72/21 2/73/21
f 18/74/22 19/75/22 22/76/22 21/77/22
f 19/78/23 20/79/23 23/80/23 22/81/23
f 23/82/24 20/83/24 1/84/24
f 21/85/25 24/86/25 2/87/25
f 21/88/26 22/89/26 25/90/26 24/91/26
f 22/92/27 23/93/27 26/94/27 25/95/27
f 26/96/28 23/97/28 1/98/28
f 24/99/29 3/100/29 2/101/29
f 24/102/30 25/103/30 4/104/30 3/105/30
f 25/106/31 26/107/31 5/108/31 4/109/31
f 5/110/32 26/111/32 1/112/32