# Made in Blockbench 5.1.6
mtllib wall.mtl

o unknown
v -1.5625000000000007 -1.5625 -0.3125
v -1.5625000000000007 1.5625 -0.3125
v 1.5625000000000007 1.5625 -0.3125
v 1.5625000000000007 -1.5625 -0.3125
v -1.5625000000000007 1.5625 0.3125
v 1.5625000000000007 1.5625 0.3125
v -1.5625000000000007 -1.5625 0.3125
v 1.5625000000000007 -1.5625 0.3125
vt 0.375 0
vt 0.375 0.25
vt 0.625 0.25
vt 0.625 0
vt 0.375 0.25
vt 0.375 0.5
vt 0.625 0.5
vt 0.625 0.25
vt 0.375 0.5
vt 0.375 0.75
vt 0.625 0.75
vt 0.625 0.5
vt 0.375 0.75
vt 0.375 1
vt 0.625 1
vt 0.625 0.75
vt 0.625 0
vt 0.625 0.25
vt 0.875 0.25
vt 0.875 0
vt 0.125 0
vt 0.125 0.25
vt 0.375 0.25
vt 0.375 0
vn 0 0 -1
vn 0 1 0
vn 0 0 1
vn 0 -1 0
vn 1 0 0
vn -1 0 0
usemtl none
f 1/1/1 2/2/1 3/3/1 4/4/1
f 2/5/2 5/6/2 6/7/2 3/8/2
f 5/9/3 7/10/3 8/11/3 6/12/3
f 7/13/4 1/14/4 4/15/4 8/16/4
f 4/17/5 3/18/5 6/19/5 8/20/5
f 7/21/6 5/22/6 2/23/6 1/24/6